# xmcd
#
# Track frame offsets:
#	150
#	22130
#	41317
#	60905
#	79110
#	103822
#	122762
#	141440
#	167610
#	188830
#	214655
#	236290
#
# Disc length: 3441 seconds
#
# Revision: 1
# Processed by: cddbd v1.5.2PL0 Copyright (c) Steve Scherf et al.
# Submitted via: audiograbber 1.83.01
#
DISCID=9c0d6f0c
DTITLE=Joe Rathburn - Rockwells and Picassos
DYEAR=2001
DGENRE=Singer - Songwriter
TTITLE0=Call it a miracle
TTITLE1=Together
TTITLE2=What don't kill ya
TTITLE3=(Never will) kill this thing
TTITLE4=Closer to the moon
TTITLE5=The way of the world
TTITLE6=Rockwells and Picassos
TTITLE7=To you tonight
TTITLE8=24/7 Motel
TTITLE9=What's the big idea?
TTITLE10=Every little vict'ry
TTITLE11=The Dutchman
EXTD=
EXTT0=
EXTT1=
EXTT2=
EXTT3=
EXTT4=
EXTT5=
EXTT6=
EXTT7=
EXTT8=
EXTT9=
EXTT10=
EXTT11=
PLAYORDER=
